<svg width="97" height="19" viewBox="0 0 97 19" fill="none"
    xmlns="http://www.w3.org/2000/svg">
    <path d="M11.424 1.248V13.008C11.424 14.64 10.952 15.912 10.008 16.824C9.064 17.72 7.8 18.168 6.216 18.168C4.616 18.168 3.32 17.704 2.328 16.776C1.352 15.848 0.864 14.552 0.864 12.888H4.224C4.24 13.608 4.408 14.168 4.728 14.568C5.064 14.968 5.544 15.168 6.168 15.168C6.776 15.168 7.24 14.976 7.56 14.592C7.88 14.208 8.04 13.68 8.04 13.008V1.248H11.424ZM20.7675 18.216C19.4875 18.216 18.3355 17.936 17.3115 17.376C16.2875 16.8 15.4795 15.992 14.8875 14.952C14.3115 13.912 14.0235 12.712 14.0235 11.352C14.0235 9.992 14.3195 8.792 14.9115 7.752C15.5195 6.712 16.3435 5.912 17.3835 5.352C18.4235 4.776 19.5835 4.488 20.8635 4.488C22.1435 4.488 23.3035 4.776 24.3435 5.352C25.3835 5.912 26.1995 6.712 26.7915 7.752C27.3995 8.792 27.7035 9.992 27.7035 11.352C27.7035 12.712 27.3915 13.912 26.7675 14.952C26.1595 15.992 25.3275 16.8 24.2715 17.376C23.2315 17.936 22.0635 18.216 20.7675 18.216ZM20.7675 15.288C21.3755 15.288 21.9435 15.144 22.4715 14.856C23.0155 14.552 23.4475 14.104 23.7675 13.512C24.0875 12.92 24.2475 12.2 24.2475 11.352C24.2475 10.088 23.9115 9.12 23.2395 8.448C22.5835 7.76 21.7755 7.416 20.8155 7.416C19.8555 7.416 19.0475 7.76 18.3915 8.448C17.7515 9.12 17.4315 10.088 17.4315 11.352C17.4315 12.616 17.7435 13.592 18.3675 14.28C19.0075 14.952 19.8075 15.288 20.7675 15.288ZM33.0482 6.648C33.4802 6.008 34.0722 5.488 34.8242 5.088C35.5922 4.688 36.4642 4.488 37.4402 4.488C38.5762 4.488 39.6002 4.768 40.5122 5.328C41.4402 5.888 42.1682 6.688 42.6962 7.728C43.2402 8.752 43.5122 9.944 43.5122 11.304C43.5122 12.664 43.2402 13.872 42.6962 14.928C42.1682 15.968 41.4402 16.776 40.5122 17.352C39.6002 17.928 38.5762 18.216 37.4402 18.216C36.4482 18.216 35.5762 18.024 34.8242 17.64C34.0882 17.24 33.4962 16.728 33.0482 16.104V18H29.6882V0.24H33.0482V6.648ZM40.0802 11.304C40.0802 10.504 39.9122 9.816 39.5762 9.24C39.2562 8.648 38.8242 8.2 38.2802 7.896C37.7522 7.592 37.1762 7.44 36.5522 7.44C35.9442 7.44 35.3682 7.6 34.8242 7.92C34.2962 8.224 33.8642 8.672 33.5282 9.264C33.2082 9.856 33.0482 10.552 33.0482 11.352C33.0482 12.152 33.2082 12.848 33.5282 13.44C33.8642 14.032 34.2962 14.488 34.8242 14.808C35.3682 15.112 35.9442 15.264 36.5522 15.264C37.1762 15.264 37.7522 15.104 38.2802 14.784C38.8242 14.464 39.2562 14.008 39.5762 13.416C39.9122 12.824 40.0802 12.12 40.0802 11.304ZM51.3778 18.216C50.0978 18.216 48.9458 17.936 47.9218 17.376C46.8978 16.8 46.0898 15.992 45.4978 14.952C44.9218 13.912 44.6338 12.712 44.6338 11.352C44.6338 9.992 44.9298 8.792 45.5218 7.752C46.1298 6.712 46.9538 5.912 47.9938 5.352C49.0338 4.776 50.1938 4.488 51.4738 4.488C52.7538 4.488 53.9138 4.776 54.9538 5.352C55.9938 5.912 56.8098 6.712 57.4018 7.752C58.0098 8.792 58.3138 9.992 58.3138 11.352C58.3138 12.712 58.0018 13.912 57.3778 14.952C56.7698 15.992 55.9378 16.8 54.8818 17.376C53.8418 17.936 52.6738 18.216 51.3778 18.216ZM51.3778 15.288C51.9858 15.288 52.5538 15.144 53.0818 14.856C53.6258 14.552 54.0578 14.104 54.3778 13.512C54.6978 12.92 54.8578 12.2 54.8578 11.352C54.8578 10.088 54.5218 9.12 53.8498 8.448C53.1938 7.76 52.3858 7.416 51.4258 7.416C50.4658 7.416 49.6578 7.76 49.0018 8.448C48.3618 9.12 48.0418 10.088 48.0418 11.352C48.0418 12.616 48.3538 13.592 48.9778 14.28C49.6178 14.952 50.4178 15.288 51.3778 15.288ZM63.6585 6.768C64.0905 6.064 64.6505 5.512 65.3385 5.112C66.0425 4.712 66.8425 4.512 67.7385 4.512V8.04H66.8505C65.7945 8.04 64.9945 8.288 64.4505 8.784C63.9225 9.28 63.6585 10.144 63.6585 11.376V18H60.2985V4.704H63.6585V6.768ZM81.8816 11.064C81.8816 11.544 81.8496 11.976 81.7856 12.36H72.0656C72.1456 13.32 72.4816 14.072 73.0736 14.616C73.6656 15.16 74.3936 15.432 75.2576 15.432C76.5056 15.432 77.3936 14.896 77.9216 13.824H81.5456C81.1616 15.104 80.4256 16.16 79.3376 16.992C78.2496 17.808 76.9136 18.216 75.3296 18.216C74.0496 18.216 72.8976 17.936 71.8736 17.376C70.8656 16.8 70.0736 15.992 69.4976 14.952C68.9376 13.912 68.6576 12.712 68.6576 11.352C68.6576 9.976 68.9376 8.768 69.4976 7.728C70.0576 6.688 70.8416 5.888 71.8496 5.328C72.8576 4.768 74.0176 4.488 75.3296 4.488C76.5936 4.488 77.7216 4.76 78.7136 5.304C79.7216 5.848 80.4976 6.624 81.0416 7.632C81.6016 8.624 81.8816 9.768 81.8816 11.064ZM78.4016 10.104C78.3856 9.24 78.0736 8.552 77.4656 8.04C76.8576 7.512 76.1136 7.248 75.2336 7.248C74.4016 7.248 73.6976 7.504 73.1216 8.016C72.5616 8.512 72.2176 9.208 72.0896 10.104H78.4016ZM82.9901 11.304C82.9901 9.96 83.2541 8.768 83.7821 7.728C84.3261 6.688 85.0621 5.888 85.9901 5.328C86.9181 4.768 87.9501 4.488 89.0861 4.488C89.9501 4.488 90.7741 4.68 91.5581 5.064C92.3421 5.432 92.9661 5.928 93.4301 6.552V0.24H96.8381V18H93.4301V16.032C93.0141 16.688 92.4301 17.216 91.6781 17.616C90.9261 18.016 90.0541 18.216 89.0621 18.216C87.9421 18.216 86.9181 17.928 85.9901 17.352C85.0621 16.776 84.3261 15.968 83.7821 14.928C83.2541 13.872 82.9901 12.664 82.9901 11.304ZM93.4541 11.352C93.4541 10.536 93.2941 9.84 92.9741 9.264C92.6541 8.672 92.2221 8.224 91.6781 7.92C91.1341 7.6 90.5501 7.44 89.9261 7.44C89.3021 7.44 88.7261 7.592 88.1981 7.896C87.6701 8.2 87.2381 8.648 86.9021 9.24C86.5821 9.816 86.4221 10.504 86.4221 11.304C86.4221 12.104 86.5821 12.808 86.9021 13.416C87.2381 14.008 87.6701 14.464 88.1981 14.784C88.7421 15.104 89.3181 15.264 89.9261 15.264C90.5501 15.264 91.1341 15.112 91.6781 14.808C92.2221 14.488 92.6541 14.04 92.9741 13.464C93.2941 12.872 93.4541 12.168 93.4541 11.352Z" fill="#232134"/>
</svg>
